<?xml version="1.0" encoding="iso-8859-1"?>
<!-- Generator: Adobe Illustrator 19.0.0, SVG Export Plug-In . SVG Version: 6.00 Build 0)  -->
<svg version="1.1" id="Capa_1" xmlns="http://www.w3.org/2000/svg" xmlns:xlink="http://www.w3.org/1999/xlink" x="0px" y="0px"
	 viewBox="0 0 512.002 512.002" style="enable-background:new 0 0 512.002 512.002;" xml:space="preserve">
<path style="fill:#4B469B;" d="M51.879,410.512c-32.77-43.221-52.131-97.167-51.877-155.648
	C0.615,113.83,116.302-0.716,257.335,0.004c56.922,0.291,109.444,19.164,151.819,50.86c25.297,18.922,11.984,59.137-19.605,59.137
	h-326.6v296.834C62.949,412.747,55.451,415.223,51.879,410.512z"/>
<path style="fill:#B9DCFF;" d="M52,110.001v-8.658V60.001c0-5.523,4.477-10,10-10h42.008H222h185.992
	c22.556,16.67,42.275,36.956,58.307,60H52z"/>
<path style="fill:#91B9FF;" d="M172,74.998c0,5.523-4.477,10-10,10s-10-4.477-10-10s4.477-10,10-10S172,69.475,172,74.998z
	 M132,64.998c-5.523,0-10,4.477-10,10s4.477,10,10,10s10-4.477,10-10S137.523,64.998,132,64.998z M102,64.998
	c-5.523,0-10,4.477-10,10s4.477,10,10,10s10-4.477,10-10S107.523,64.998,102,64.998z"/>
<path style="fill:#E1FFFA;" d="M512,256.001c0,141.385-114.615,256-256,256c-83.273,0-157.248-39.77-204-101.342V98.953h406.168
	C491.901,142.315,512,196.808,512,256.001z"/>
<path style="fill:#C8FFFA;" d="M98.633,457.912C81.125,444.245,65.436,428.355,52,410.659V98.953h46.633
	C98.633,98.953,98.633,457.912,98.633,457.912z"/>
<path style="fill:#9BF5F0;" d="M512,256.001c0,25.732-3.813,50.571-10.877,74H95c-2.761,0-5-2.239-5-5v-170c0-2.761,2.239-5,5-5
	h394.084C503.797,182.301,512,218.192,512,256.001z M105,360.001H95c-2.761,0-5,2.239-5,5v85.866c6.402,5.46,13.076,10.61,20,15.427
	V365.001C110,362.24,107.761,360.001,105,360.001z M265,360.001h-10c-2.761,0-5,2.239-5,5v120c0,2.761,2.239,5,5,5h10
	c2.761,0,5-2.239,5-5v-120C270,362.24,267.761,360.001,265,360.001z M225,360.001h-10c-2.761,0-5,2.239-5,5v120c0,2.761,2.239,5,5,5
	h10c2.761,0,5-2.239,5-5v-120C230,362.24,227.761,360.001,225,360.001z M185,360.001h-10c-2.761,0-5,2.239-5,5v120
	c0,2.761,2.239,5,5,5h10c2.761,0,5-2.239,5-5v-120C190,362.24,187.761,360.001,185,360.001z M145,360.001h-10c-2.761,0-5,2.239-5,5
	v113.882c6.055,3.431,12.264,6.62,18.613,9.559c0.854-0.897,1.387-2.105,1.387-3.441v-120C150,362.24,147.761,360.001,145,360.001z
	 M300,365.001v120c0,2.761,2.239,5,5,5h54.949c57.799-25.715,104.302-72.208,130.028-130H305
	C302.239,360.001,300,362.239,300,365.001z"/>
<path style="fill:#50C8C8;" d="M230,395.001v90c0,2.761-2.239,5-5,5h-10c-2.761,0-5-2.239-5-5v-90c0-2.761,2.239-5,5-5h10
	C227.761,390.001,230,392.239,230,395.001z M265,430.001h-10c-2.761,0-5,2.239-5,5v50c0,2.761,2.239,5,5,5h10c2.761,0,5-2.239,5-5
	v-50C270,432.239,267.761,430.001,265,430.001z M185,410.001h-10c-2.761,0-5,2.239-5,5v70c0,2.761,2.239,5,5,5h10
	c2.761,0,5-2.239,5-5v-70C190,412.239,187.761,410.001,185,410.001z M105,400.001H95c-2.761,0-5,2.239-5,5v45.87
	c6.402,5.459,13.077,10.605,20,15.421v-61.291C110,402.239,107.761,400.001,105,400.001z M145,380.001h-10c-2.761,0-5,2.239-5,5
	v93.88c6.056,3.431,12.266,6.619,18.616,9.558c0.853-0.897,1.384-2.103,1.384-3.438v-100C150,382.239,147.761,380.001,145,380.001z
	 M440,430.001v-15c0-2.761-2.239-5-5-5h-15v-5c0-2.761-2.239-5-5-5h-15v-15c0-2.761-2.239-5-5-5h-10c-2.761,0-5,2.239-5,5v15h-20v-5
	c0-2.761-2.239-5-5-5h-10c-2.761,0-5,2.239-5,5v15h-15c-2.761,0-5,2.239-5,5v15h-20v55c0,2.761,2.239,5,5,5h54.949
	c31.908-14.196,60.362-34.734,83.79-60H440z"/>
<path style="fill:#82E1E1;" d="M419.607,403.055c0.253,0.598,0.393,1.256,0.393,1.946v5v42.54c-6.409,5.355-13.082,10.404-20,15.122
	v-67.662h15c0.69,0,1.348,0.14,1.946,0.393C418.143,400.9,419.101,401.858,419.607,403.055z M440,430.001v3.933
	c1.258-1.3,2.509-2.606,3.74-3.933H440z M323.054,410.394c-1.196,0.506-2.155,1.464-2.661,2.661
	c-0.253,0.598-0.393,1.256-0.393,1.946v15v60h20v-80h-15C324.31,410.001,323.652,410.141,323.054,410.394z M360,489.978
	c6.834-3.042,13.499-6.392,20-10v-79.977h-20V489.978z"/>
<path style="fill:#FF9B69;" d="M483.888,190.001h19.506c5.604,21.058,8.607,43.177,8.607,66c0,25.732-3.813,50.571-10.877,74H95
	c-2.761,0-5-2.239-5-5v-125h16.112c15.631,0,30.968,4.248,44.371,12.29l59.033,35.42c13.404,8.042,28.74,12.29,44.371,12.29l0,0
	c17.026,0,33.672-5.04,47.839-14.484l16.547-11.031c14.167-9.445,30.813-14.485,47.839-14.485h20
	c15.631,0,30.968-4.248,44.371-12.29l9.033-5.42C452.92,194.249,468.257,190.001,483.888,190.001z"/>
<path style="fill:#FF784B;" d="M505.258,197.501h-21.37c-14.269,0-28.277,3.88-40.513,11.221l-9.033,5.42
	c-14.565,8.739-31.243,13.359-48.229,13.359h-20c-15.597,0-30.7,4.573-43.679,13.225l-16.547,11.031
	c-15.45,10.3-33.431,15.744-51.999,15.744c-16.986,0-33.664-4.62-48.229-13.359l-59.033-35.42
	c-12.235-7.341-26.244-11.221-40.513-11.221H90v-15h16.112c16.986,0,33.664,4.62,48.229,13.359l59.033,35.42
	c12.235,7.341,26.244,11.221,40.513,11.221c15.597,0,30.7-4.573,43.679-13.225l16.547-11.031
	c15.45-10.3,33.431-15.744,51.999-15.744h20c14.269,0,28.277-3.88,40.513-11.221l9.033-5.42
	c14.565-8.739,31.243-13.359,48.229-13.359h17.384C502.75,187.439,504.075,192.443,505.258,197.501z"/>
<path style="fill:#FF5019;" d="M160,209.998c0,8.284-6.716,15-15,15s-15-6.716-15-15s6.716-15,15-15S160,201.714,160,209.998z
	 M462.333,176.665c-8.284,0-15,6.716-15,15s6.716,15,15,15s15-6.716,15-15C477.333,183.38,470.618,176.665,462.333,176.665z
	 M350.667,207.665c-8.284,0-15,6.716-15,15s6.716,15,15,15s15-6.716,15-15C365.667,214.38,358.951,207.665,350.667,207.665z"/>
<g>
</g>
<g>
</g>
<g>
</g>
<g>
</g>
<g>
</g>
<g>
</g>
<g>
</g>
<g>
</g>
<g>
</g>
<g>
</g>
<g>
</g>
<g>
</g>
<g>
</g>
<g>
</g>
<g>
</g>
</svg>
