<?xml version="1.0" encoding="UTF-8" standalone="no"?>
<svg
   xmlns:dc="http://purl.org/dc/elements/1.1/"
   xmlns:cc="http://creativecommons.org/ns#"
   xmlns:rdf="http://www.w3.org/1999/02/22-rdf-syntax-ns#"
   xmlns:svg="http://www.w3.org/2000/svg"
   xmlns="http://www.w3.org/2000/svg"
   xmlns:sodipodi="http://sodipodi.sourceforge.net/DTD/sodipodi-0.dtd"
   xmlns:inkscape="http://www.inkscape.org/namespaces/inkscape"
   inkscape:version="1.0 (4035a4fb49, 2020-05-01)"
   sodipodi:docname="computercircle1.svg"
   version="1.1"
   width="512"
   viewBox="0 0 64 64"
   height="512"
   enable-background="new 0 0 64 64"
   id="Layer_3">
  <metadata
     id="metadata38">
    <rdf:RDF>
      <cc:Work
         rdf:about="">
        <dc:format>image/svg+xml</dc:format>
        <dc:type
           rdf:resource="http://purl.org/dc/dcmitype/StillImage" />
        <dc:title></dc:title>
      </cc:Work>
    </rdf:RDF>
  </metadata>
  <defs
     id="defs36" />
  <sodipodi:namedview
     inkscape:current-layer="Layer_3"
     inkscape:window-maximized="1"
     inkscape:window-y="-11"
     inkscape:window-x="1589"
     inkscape:cy="152.86088"
     inkscape:cx="380.10552"
     inkscape:zoom="0.6953125"
     showborder="false"
     showgrid="false"
     id="namedview34"
     inkscape:window-height="1016"
     inkscape:window-width="1680"
     inkscape:pageshadow="2"
     inkscape:pageopacity="0"
     guidetolerance="10"
     gridtolerance="10"
     objecttolerance="10"
     borderopacity="1"
     bordercolor="#666666"
     pagecolor="#ffffff" />
  <g
     id="g31">
    <path
       id="path25"
       d="m62 27h-10v-3c0-.553-.447-1-1-1-1.53 0-2.885.706-3.803 1.792-.245-.15-.502-.281-.778-.373l-2.051-.685c-.818-.272-1.368-1.034-1.368-1.896v-.838h11c1.103 0 2-.897 2-2v-16c0-1.103-.897-2-2-2h-28c-1.103 0-2 .897-2 2v16c0 1.103.897 2 2 2h11v.838c0 .862-.55 1.624-1.368 1.897l-2.051.684c-1.216.405-2.109 1.388-2.437 2.581h-12.144v-17c0-.553-.447-1-1-1h-12c-.553 0-1 .447-1 1v17h-3c-.553 0-1 .447-1 1v6 28c0 .553.447 1 1 1h4c.553 0 1-.447 1-1v-7h10v7c0 .553.447 1 1 1h4c.553 0 1-.447 1-1v-27h23v7h-13c-2.757 0-5 2.243-5 5v2c0 .553.447 1 1 1h8v.758c0 2.336-.87 4.533-2.441 6.242h-1.559c-1.654 0-3 1.346-3 3s1.346 3 3 3h14c1.654 0 3-1.346 3-3s-1.346-3-3-3h-1.559c-1.571-1.709-2.441-3.906-2.441-6.242v-.758h6c1.654 0 3-1.346 3-3v-4-8h5v27c0 .553.447 1 1 1h4c.553 0 1-.447 1-1v-28-6c0-.553-.447-1-1-1zm-8-24 .001 12h-28.001v-12zm-28 14h28.002v2h-28.002zm8.214 9.315 2.051-.683c1.635-.545 2.735-2.07 2.735-3.794v-.838h2v.838c0 1.725 1.1 3.249 2.735 3.794l2.051.684c.163.055.316.132.455.23-.047.152-.108.297-.14.455h-12.786c.214-.313.522-.56.899-.686zm-17.214-5.315h-10v-4h10zm0-10v4h-10v-4zm-10 12h10v4h-10zm-2 38h-2v-26h2zm12-26v8h-10v-8zm-10 18v-8h10v8zm14 8h-2v-26h2zm1-28h-4-12-3v-4h43v4zm26-5c0-1.304.836-2.416 2-2.829v16.829h-2zm0 32c0 .552-.448 1-1 1h-14c-.552 0-1-.448-1-1s.448-1 1-1h14c.552 0 1 .448 1 1zm-5.111-3h-5.778c1.228-1.832 1.889-3.986 1.889-6.242v-.758h2v.758c0 2.256.661 4.41 1.889 6.242zm7.111-10c0 .552-.448 1-1 1h-19v-1c0-1.654 1.346-3 3-3h17zm2-18h9v4h-3-6zm9 32h-2v-26h2z" />
    <path
       id="path27"
       d="m10 37h4v2h-4z" />
    <path
       id="path29"
       d="m10 47h4v2h-4z" />
  </g>
  <text
     id="text909"
     y="-14.921349"
     x="-31.820225"
     style="font-style:normal;font-weight:normal;font-size:5px;line-height:1.25;font-family:sans-serif;fill:#000000;fill-opacity:1;stroke:none;stroke-width:0.125"
     xml:space="preserve"><tspan
       sodipodi:role="line"
       style="stroke-width:0.125"
       y="-14.921349"
       x="-31.820225"
       id="tspan907" /></text>
  <g
     style="font-style:normal;font-variant:normal;font-weight:bold;font-stretch:normal;font-size:19.1073px;line-height:1.25;font-family:'Century Gothic';-inkscape-font-specification:'Century Gothic, Bold';font-variant-ligatures:normal;font-variant-caps:normal;font-variant-numeric:normal;font-variant-east-asian:normal;white-space:pre;fill:#000000;fill-opacity:1;stroke:none;stroke-width:0.125"
     id="text913"
     aria-label="VBA MADE EASY">
    <path
       id="path918"
       style="font-style:normal;font-variant:normal;font-weight:bold;font-stretch:normal;font-size:19.1073px;font-family:'Century Gothic';-inkscape-font-specification:'Century Gothic, Bold';font-variant-ligatures:normal;font-variant-caps:normal;font-variant-numeric:normal;font-variant-east-asian:normal;stroke-width:0.125"
       d="m -24.551894,39.758354 0.127089,-2.683957 9.901937,-2.987 -9.573182,-3.955874 0.127089,-2.683957 13.474803,5.588351 -0.119146,2.51621 z" />
    <path
       id="path920"
       style="font-style:normal;font-variant:normal;font-weight:bold;font-stretch:normal;font-size:19.1073px;font-family:'Century Gothic';-inkscape-font-specification:'Century Gothic, Bold';font-variant-ligatures:normal;font-variant-caps:normal;font-variant-numeric:normal;font-variant-east-asian:normal;stroke-width:0.125"
       d="m -9.6056969,26.010342 -13.0745201,-4.17208 0.655167,-2.053171 q 0.57008,-1.786525 1.064941,-2.539384 0.685468,-1.073973 1.751071,-1.49781 1.065602,-0.423838 2.212178,-0.05797 0.746608,0.238243 1.257789,0.753917 0.505128,0.503949 0.811522,1.385177 0.940009,-1.012335 1.960232,-1.293961 1.011335,-0.284463 2.157911,0.08141 1.1021352,0.351692 1.827212,1.20983 0.7250768,0.858138 0.891916,1.900492 0.157951,1.039518 -0.3468962,2.621615 z m -9.9072331,-5.903501 2.755337,0.879228 0.17301,-0.542179 q 0.289294,-0.906595 0.04608,-1.464073 -0.240381,-0.566367 -0.898107,-0.776247 -0.613284,-0.195699 -1.102114,0.108596 -0.497718,0.30146 -0.769995,1.154726 z m 4.977384,1.588284 3.350845,1.069255 0.198536,-0.622173 q 0.493502,-1.546545 0.272595,-2.204629 -0.218071,-0.666973 -0.964678,-0.905216 -0.844378,-0.269441 -1.5346,0.205628 -0.690221,0.475069 -1.158198,1.94162 z" />
    <path
       id="path922"
       style="font-style:normal;font-variant:normal;font-weight:bold;font-stretch:normal;font-size:19.1073px;font-family:'Century Gothic';-inkscape-font-specification:'Century Gothic, Bold';font-variant-ligatures:normal;font-variant-caps:normal;font-variant-numeric:normal;font-variant-east-asian:normal;stroke-width:0.125"
       d="m -15.160959,4.4207619 1.459992,-2.211118 14.36235952,3.1554755 -1.49597748,2.2656175 -2.95023884,-0.6623202 -3.0844897,4.6713763 1.7421471,2.491942 -1.4959775,2.265618 z m 3.776673,0.883788 2.9241412,4.122095 2.0100591,-3.0441801 z" />
    <path
       id="path924"
       style="font-style:normal;font-variant:normal;font-weight:bold;font-stretch:normal;font-size:19.1073px;font-family:'Century Gothic';-inkscape-font-specification:'Century Gothic, Bold';font-variant-ligatures:normal;font-variant-caps:normal;font-variant-numeric:normal;font-variant-east-asian:normal;stroke-width:0.125"
       d="m 0.5291321,-12.52459 2.2301089,-1.249611 7.446489,6.800087 -1.8712169,-9.924115 2.1975529,-1.231369 8.727172,10.8415568 -2.197553,1.2313687 -5.522796,-6.8406295 1.689288,8.9886839 -2.010354,1.1264743 -6.7517972,-6.1519754 2.9264281,8.2954691 -2.2219698,1.24505059 z" />
    <path
       id="path926"
       style="font-style:normal;font-variant:normal;font-weight:bold;font-stretch:normal;font-size:19.1073px;font-family:'Century Gothic';-inkscape-font-specification:'Century Gothic, Bold';font-variant-ligatures:normal;font-variant-caps:normal;font-variant-numeric:normal;font-variant-east-asian:normal;stroke-width:0.125"
       d="m 23.73579,-21.738983 2.623222,-0.373259 7.161295,12.8432965 -2.68788,0.3824588 -1.460451,-2.6475763 -5.542019,0.788575 -0.710174,2.9564344 -2.687879,0.3824588 z m 1.842658,3.413055 -1.146676,4.922134 3.61155,-0.513888 z" />
    <path
       id="path928"
       style="font-style:normal;font-variant:normal;font-weight:bold;font-stretch:normal;font-size:19.1073px;font-family:'Century Gothic';-inkscape-font-specification:'Century Gothic, Bold';font-variant-ligatures:normal;font-variant-caps:normal;font-variant-numeric:normal;font-variant-east-asian:normal;stroke-width:0.125"
       d="m 38.156688,-22.482379 3.045463,0.565232 q 2.94456,0.546505 4.23936,1.545942 1.296503,0.990264 1.918236,2.804199 0.621733,1.813935 0.214834,4.006302 -0.289426,1.559424 -1.05575,2.774132 -0.755448,1.2072379 -1.832792,1.8992571 -1.068171,0.6937218 -2.193539,0.8264621 -1.125367,0.1327403 -3.748869,-0.3541763 l -3.091329,-0.5737443 z m 2.099613,2.951732 -1.578222,8.503448 1.1925,0.221326 q 1.761232,0.326881 2.625028,0.06968 0.872968,-0.255497 1.554548,-1.11586 0.68158,-0.860363 0.940361,-2.254671 0.398387,-2.146502 -0.583664,-3.552858 -0.884933,-1.264973 -3.279108,-1.709327 z" />
    <path
       id="path930"
       style="font-style:normal;font-variant:normal;font-weight:bold;font-stretch:normal;font-size:19.1073px;font-family:'Century Gothic';-inkscape-font-specification:'Century Gothic, Bold';font-variant-ligatures:normal;font-variant-caps:normal;font-variant-numeric:normal;font-variant-east-asian:normal;stroke-width:0.125"
       d="m 54.729707,-18.198469 6.724812,3.302066 -1.126732,2.294644 -4.39667,-2.158886 -1.093836,2.227647 4.396671,2.158885 -1.106172,2.2527702 -4.39667,-2.1588852 -1.591407,3.2409743 4.396671,2.1588851 -1.130845,2.3030179 -6.724812,-3.3020662 z" />
    <path
       id="path932"
       style="font-style:normal;font-variant:normal;font-weight:bold;font-stretch:normal;font-size:19.1073px;font-family:'Century Gothic';-inkscape-font-specification:'Century Gothic, Bold';font-variant-ligatures:normal;font-variant-caps:normal;font-variant-numeric:normal;font-variant-east-asian:normal;stroke-width:0.125"
       d="m 71.475641,-7.4414435 5.223423,5.3705297 -1.832534,1.78233868 -3.415065,-3.51124298 -1.77903,1.7302997 3.415065,3.5112429 -1.799094,1.7498143 -3.415065,-3.51124291 -2.588288,2.51739081 3.415066,3.511243 -1.839223,1.7888436 -5.223423,-5.3705297 z" />
    <path
       id="path934"
       style="font-style:normal;font-variant:normal;font-weight:bold;font-stretch:normal;font-size:19.1073px;font-family:'Century Gothic';-inkscape-font-specification:'Century Gothic, Bold';font-variant-ligatures:normal;font-variant-caps:normal;font-variant-numeric:normal;font-variant-east-asian:normal;stroke-width:0.125"
       d="m 82.49961,6.3303993 1.292457,2.3130444 -9.404781,11.3041803 -1.324313,-2.370056 1.944436,-2.315544 -2.730542,-4.886713 -3.013899,0.401581 -1.324314,-2.3700561 z m -2.521034,2.9476641 -5.004961,0.7018805 1.779404,3.1845081 z" />
    <path
       id="path936"
       style="font-style:normal;font-variant:normal;font-weight:bold;font-stretch:normal;font-size:19.1073px;font-family:'Century Gothic';-inkscape-font-specification:'Century Gothic, Bold';font-variant-ligatures:normal;font-variant-caps:normal;font-variant-numeric:normal;font-variant-east-asian:normal;stroke-width:0.125"
       d="M 88.047549,26.051009 85.91297,24.605901 q 1.120115,-1.338124 0.857512,-2.359155 -0.127815,-0.496962 -0.480222,-0.743493 -0.343372,-0.248855 -0.677692,-0.16287 -0.33432,0.08599 -0.574399,0.388566 -0.318556,0.409465 -1.231339,2.291534 -0.838954,1.757112 -1.076189,2.145662 -0.579535,0.967889 -1.212016,1.467727 -0.621122,0.50655 -1.461439,0.722674 -1.635457,0.420629 -2.992156,-0.434608 -1.356699,-0.855237 -1.823806,-2.671407 -0.364855,-1.418601 0.05899,-2.654716 0.426173,-1.22708 1.724174,-2.360487 l 1.829186,1.793387 q -1.515621,1.410945 -1.194921,2.657868 0.167322,0.650569 0.660692,0.995712 0.493371,0.345144 0.990333,0.217328 0.451783,-0.116196 0.817582,-0.566711 0.365799,-0.450516 1.003659,-1.828374 1.213252,-2.62405 2.008359,-3.502882 0.804143,-0.881156 1.761925,-1.127492 1.382458,-0.355559 2.63692,0.439272 1.265823,0.801543 1.663212,2.346643 0.255631,0.993924 0.02488,2.006976 -0.228428,1.022087 -1.178669,2.383954 z" />
    <path
       id="path938"
       style="font-style:normal;font-variant:normal;font-weight:bold;font-stretch:normal;font-size:19.1073px;font-family:'Century Gothic';-inkscape-font-specification:'Century Gothic, Bold';font-variant-ligatures:normal;font-variant-caps:normal;font-variant-numeric:normal;font-variant-east-asian:normal;stroke-width:0.125"
       d="m 90.70019,30.430227 0.06632,2.807468 -4.86436,2.671964 4.984655,2.420651 0.06543,2.770159 -7.873568,-3.82692 -5.941385,0.140344 -0.06213,-2.630252 5.941384,-0.140344 z" />
  </g>
</svg>
