<?xml version="1.0" encoding="iso-8859-1"?>
<!-- Generator: Adobe Illustrator 19.0.0, SVG Export Plug-In . SVG Version: 6.00 Build 0)  -->
<svg version="1.1" id="Capa_1" xmlns="http://www.w3.org/2000/svg" xmlns:xlink="http://www.w3.org/1999/xlink" x="0px" y="0px"
	 viewBox="0 0 512 512" style="enable-background:new 0 0 512 512;" xml:space="preserve">
<rect x="7.5" y="7.5" style="fill:#FFDAAA;" width="497" height="497"/>
<g>
	<rect x="67.5" y="37.5" style="fill:#FF9478;" width="125.67" height="125.67"/>
	<rect x="223.17" y="37.5" style="fill:#FF9478;" width="125.67" height="125.67"/>
	<rect x="378.83" y="37.5" style="fill:#FF9478;" width="125.67" height="125.67"/>
	<rect x="67.5" y="193.17" style="fill:#FF9478;" width="125.67" height="125.67"/>
	<rect x="223.17" y="193.17" style="fill:#FF9478;" width="125.67" height="125.67"/>
	<rect x="378.83" y="193.17" style="fill:#FF9478;" width="125.67" height="125.67"/>
	<rect x="67.5" y="348.83" style="fill:#FF9478;" width="125.67" height="125.67"/>
	<rect x="223.17" y="348.83" style="fill:#FF9478;" width="125.67" height="125.67"/>
	<rect x="378.83" y="348.83" style="fill:#FF9478;" width="125.67" height="125.67"/>
</g>
<g>
	<rect x="37.5" y="37.5" style="fill:#FFB655;" width="125.67" height="125.67"/>
	<rect x="193.17" y="37.5" style="fill:#FFB655;" width="125.67" height="125.67"/>
	<rect x="348.83" y="37.5" style="fill:#FFB655;" width="125.67" height="125.67"/>
	<rect x="37.5" y="193.17" style="fill:#FFB655;" width="125.67" height="125.67"/>
	<rect x="193.17" y="193.17" style="fill:#FFB655;" width="125.67" height="125.67"/>
	<rect x="348.83" y="193.17" style="fill:#FFB655;" width="125.67" height="125.67"/>
	<rect x="37.5" y="348.83" style="fill:#FFB655;" width="125.67" height="125.67"/>
	<rect x="193.17" y="348.83" style="fill:#FFB655;" width="125.67" height="125.67"/>
	<rect x="348.83" y="348.83" style="fill:#FFB655;" width="125.67" height="125.67"/>
</g>
<rect x="7.5" y="7.5" style="fill:#FF9478;" width="30" height="497"/>
<g>
	<rect x="37.5" y="37.5" style="fill:#FF7956;" width="30" height="125.67"/>
	<rect x="193.17" y="37.5" style="fill:#FF7956;" width="30" height="125.67"/>
	<rect x="348.83" y="37.5" style="fill:#FF7956;" width="30" height="125.67"/>
	<rect x="37.5" y="193.17" style="fill:#FF7956;" width="30" height="125.67"/>
	<rect x="193.17" y="193.17" style="fill:#FF7956;" width="30" height="125.67"/>
	<rect x="348.83" y="193.17" style="fill:#FF7956;" width="30" height="125.67"/>
	<rect x="37.5" y="348.83" style="fill:#FF7956;" width="30" height="125.67"/>
	<rect x="193.17" y="348.83" style="fill:#FF7956;" width="30" height="125.67"/>
	<rect x="348.83" y="348.83" style="fill:#FF7956;" width="30" height="125.67"/>
</g>
<rect x="439.67" y="286.75" width="15" height="15"/>
<rect x="389.67" y="286.75" width="15" height="15"/>
<rect x="414.67" y="286.75" width="15" height="15"/>
<rect x="82.67" y="443.5" width="15" height="15"/>
<rect x="107.67" y="443.5" width="15" height="15"/>
<rect x="132.67" y="443.5" width="15" height="15"/>
<rect x="209.65" y="443.5" width="72.52" height="15"/>
<rect x="209.65" y="131" width="72.52" height="15"/>
<path d="M0,0v512h512V0H0z M497,497H15V15h482V497z"/>
<path d="M170.667,30H30v140.667h140.667V30z M155.667,155.667H45V45h110.667L155.667,155.667L155.667,155.667z"/>
<path d="M326.333,30H185.667v140.667h140.666V30z M311.333,155.667H200.667V45h110.666V155.667z"/>
<path d="M482,30H341.333v140.667H482V30z M467,155.667H356.333V45H467V155.667z"/>
<path d="M170.667,185.667H30v140.667h140.667V185.667z M155.667,311.333H45V200.667h110.667L155.667,311.333L155.667,311.333z"/>
<path d="M326.333,185.667H185.667v140.667h140.666V185.667z M311.333,311.333H200.667V200.667h110.666V311.333z"/>
<path d="M482,185.667H341.333v140.667H482V185.667z M467,311.333H356.333V200.667H467V311.333z"/>
<path d="M170.667,341.333H30V482h140.667V341.333z M155.667,467H45V356.333h110.667L155.667,467L155.667,467z"/>
<path d="M326.333,341.333H185.667V482h140.666V341.333z M311.333,467H200.667V356.333h110.666V467z"/>
<path d="M482,341.333H341.333V482H482V341.333z M467,467H356.333V356.333H467V467z"/>
<g>
	<rect x="412.33" y="60.5" style="fill:#FFFFFF;" width="15" height="15"/>
	<rect x="370" y="60.5" style="fill:#FFFFFF;" width="32.33" height="15"/>
	<rect x="437.33" y="60.5" style="fill:#FFFFFF;" width="15" height="15"/>
	<rect x="126.5" y="210" style="fill:#FFFFFF;" width="15" height="15"/>
	<rect x="59.17" y="210" style="fill:#FFFFFF;" width="32.33" height="15"/>
	<rect x="101.5" y="210" style="fill:#FFFFFF;" width="15" height="15"/>
</g>
<g>
</g>
<g>
</g>
<g>
</g>
<g>
</g>
<g>
</g>
<g>
</g>
<g>
</g>
<g>
</g>
<g>
</g>
<g>
</g>
<g>
</g>
<g>
</g>
<g>
</g>
<g>
</g>
<g>
</g>
</svg>
